<svg viewBox="0 0 303.88724948 79" xmlns="http://www.w3.org/2000/svg"><g fill="#fff"><path d="m75.99714147 30.79464346v10.92025963c0 .19024843-.15219874.34244717-.34198874.34244717h-4.56596221c-.19070686 0-.3429056-.15219874-.3429056-.34244717l.15219874-12.97494262-.15219874-12.97494262c0-.19024843.15219874-.34244717.3429056-.34244717h7.03873332c.18979 0 .38049685.15219874.45659622.30439748l7.11574955 19.1770413 6.69674458-19.1770413c.07518251-.15219874.26588937-.30439748.45659622-.30439748h6.58213709c.18979 0 .34198874.15219874.34198874.34244717l-.15219874 12.97494262.15219874 12.97494262c0 .19024843-.15219874.34244717-.34198874.34244717h-5.13716592c-.18979 0-.34198874-.15219874-.34198874-.34244717v-10.92025963l.18979-6.27819804.03850812-1.21758992-6.50603772 18.45409728c-.07701623.15219874-.26680623.30439748-.45659622.30439748h-3.88198474c-.18979 0-.37957999-.15219874-.45659622-.30439748l-7.11483269-19.1770413.03850812 2.01663331.18979 6.20209867z"/><path d="m116.78823763 42.05735025c-.18979 0-.34198874-.15219874-.34198874-.34244717l.07518251-1.94053394c-1.36978866 1.67418614-3.30986417 2.66347796-5.78355214 2.66347796-5.55433717 0-8.48462135-4.41376347-8.48462135-10.12121624 0-5.66940308 3.27227292-10.23536529 8.59922883-10.23536529 2.43517985 0 4.3376641.87514276 5.66894465 2.47322953l-.11369063-1.75028552c0-.19024843.15219874-.34244717.3429056-.34244717h5.09774094c.19070686 0 .3429056.15219874.3429056.34244717l-.11369063 9.47437159.11369063 9.43632191c0 .19024843-.15219874.34244717-.3429056.34244717h-5.06014969zm-4.45135473-3.42447166c2.77716858 0 4.26156473-2.09273268 4.29915599-6.24014836.03759126-4.18546536-1.44588803-6.46844647-4.18546536-6.50649615-2.89177607-.07609937-4.37525536 2.09273268-4.37525536 6.1259993 0 4.41376347 1.5219874 6.65869489 4.26156473 6.62064521z"/><path d="m137.14527759 41.33440623c0 .19024843-.15219874.38049685-.30439748.45659622-1.10298244.38049685-2.35816362.64684465-3.57575354.64684465-3.31078103 0-6.46936333-1.67418614-6.46936333-6.1259993l.03850812-9.81681876h-2.20688174c-.18979 0-.34198874-.15219874-.34198874-.34244717v-3.34837229c0-.19024843.15219874-.34244717.34198874-.34244717h2.20688174l-.03850812-4.56596221c0-.19024843.15219874-.34244717.3429056-.34244717h5.06106655c.18979 0 .34198874.15219874.34198874.34244717l-.03759126 4.56596221h4.33674724c.19070686 0 .3429056.15219874.3429056.34244717v3.34837229c0 .19024843-.15219874.34244717-.3429056.34244717h-4.37525536l.03850812 9.66462002c0 1.67418614.83617621 2.20688174 2.09227425 2.20688174.91319244 0 1.63567803-.15219874 2.20688174-.34244717.18979-.03804969.34198874.11414906.34198874.2663478v3.04397481z"/><path d="m148.33280187 42.55199616c-6.27865647 0-10.00752561-3.99521694-10.00752561-10.23536529s3.72886914-10.34951435 10.12121624-10.34951435c5.02255843 0 8.29483135 2.85372638 8.75142758 7.11529112.03759126.19024843-.11460749.34244717-.30439748.34244717h-4.60355347c-.19070686 0-.3429056-.15219874-.38141371-.34244717-.45659622-2.20688174-1.82638489-3.27227292-3.46206292-3.27227292-2.89177607.03804969-4.26156473 2.13078237-4.26156473 6.46844647 0 4.48986284 1.40829678 6.43039678 4.26156473 6.46844647 1.94007551.03804969 3.3868804-1.33173898 3.61426166-3.88106788.03850812-.19024843.19070686-.34244717.38141371-.34244717h4.71816095c.18979 0 .34198874.15219874.30439748.34244717-.41900497 4.45181316-3.99567537 7.68603639-9.13192443 7.68603639z"/><path d="m169.64154239 26.19063156c-1.82638489 0-3.80496851 1.40783835-4.45135473 4.18546536l.15219874 11.33880616c0 .19024843-.15219874.34244717-.3429056.34244717h-4.98405032c-.19070686 0-.3429056-.15219874-.3429056-.34244717l.15219874-13.01299231-.15219874-12.93689294c0-.19024843.15219874-.34244717.3429056-.34244717h4.98405032c.19070686 0 .3429056.15219874.3429056.34244717l-.11460749 8.86557663c1.36978866-1.75028552 3.34837229-2.62542827 5.93575088-2.62542827 4.41376347 0 7.11574955 2.62542827 7.00114206 8.37093072v4.18546536l.11460749 7.1533408c0 .19024843-.15219874.34244717-.3429056.34244717h-5.13624906c-.19070686 0-.3429056-.15219874-.3429056-.34244717l.11369063-7.07724143-.03759126-4.94645906c-.03759126-2.35908048-1.33219741-3.50057103-2.89177607-3.50057103z"/><path d="m186.57502756 35.0181585.11369063 6.69674458c0 .19024843-.15219874.34244717-.3429056.34244717h-5.21234843c-.18979 0-.34198874-.15219874-.34198874-.34244717l.11369063-6.69674458-.03850812-12.21394892c0-.19024843.15219874-.34244717.3429056-.34244717h4.87035969c.19070686 0 .3429056.15219874.3429056.34244717l-.11460749 2.13078237c1.36978866-1.90248426 3.12007418-2.92982575 5.6313534-2.92982575 2.73957733 0 4.6805697 1.17954024 5.59376214 3.69081946 1.67418614-2.96787544 3.65276977-3.69081946 5.97334213-3.69081946 3.95716725 0 6.24014836 2.39713016 6.24014836 7.60993702v5.40305529l.07609937 6.69674458c0 .19024843-.15219874.34244717-.3429056.34244717h-5.13624906c-.19070686 0-.3429056-.15219874-.3429056-.34244717l.11460749-6.69674458v-5.32695592c0-2.35908048-.9507837-3.50057103-2.51127922-3.50057103s-3.46206292 2.09273268-3.46206292 6.08794962v2.73957733l.11369063 6.69674458c0 .19024843-.15219874.34244717-.3429056.34244717h-5.13624906c-.19070686 0-.3429056-.15219874-.3429056-.34244717l.11460749-6.69674458v-5.32695592c0-2.35908048-.91319244-3.50057103-2.51127922-3.50057103s-3.46206292 2.09273268-3.46206292 6.08794962v2.73957733z"/><path d="m226.45201441 42.05735025c-.18979 0-.34198874-.15219874-.34198874-.34244717l.07518251-1.94053394c-1.36978866 1.67418614-3.30986417 2.66347796-5.78355214 2.66347796-5.55433717 0-8.48462135-4.41376347-8.48462135-10.12121624 0-5.66940308 3.27227292-10.23536529 8.59922883-10.23536529 2.43517985 0 4.3376641.87514276 5.66894465 2.47322953l-.11369063-1.75028552c0-.19024843.15219874-.34244717.3429056-.34244717h5.09774094c.19070686 0 .3429056.15219874.3429056.34244717l-.11369063 9.47437159.11369063 9.43632191c0 .19024843-.15219874.34244717-.3429056.34244717h-5.06014969zm-4.45135472-3.42447166c2.77716858 0 4.26156473-2.09273268 4.29915599-6.24014836.03759126-4.18546536-1.44588803-6.46844647-4.18546536-6.50649615-2.89177607-.07609937-4.37525536 2.09273268-4.37525536 6.1259993 0 4.41376347 1.5219874 6.65869489 4.26156473 6.62064521z"/><path d="m243.65138894 42.51394647c-5.70745277 0-9.36022254-2.32103079-9.55001253-6.69674458 0-.19024843.15219874-.34244717.34198874-.34244717h4.87035969c.18979 0 .34198874.15219874.34198874.34244717.15219874 2.20688174 1.59900363 3.15812386 4.26156473 3.15812386 2.24538985 0 3.46297978-.87514276 3.46297978-2.39713016 0-3.72886914-12.82228545-.11414906-12.82228545-8.33288104 0-4.07131631 3.27135606-6.24014836 8.56072072-6.24014836 5.13716592 0 8.59922883 2.054683 8.94213443 6.16404899.03759126.19024843-.11460749.34244717-.30439748.34244717h-4.64297844c-.18979 0-.34198874-.15219874-.37957999-.34244717-.30439748-1.67418614-1.36978866-2.70152764-3.69127789-2.70152764-1.864893 0-3.04397481.68489433-3.04397481 2.35908048 0 3.72886914 12.82320231-.07609937 12.82320231 8.25678167 0 4.10936599-3.88198474 6.43039678-9.17043254 6.43039678z"/><path d="m266.59672435 41.33440623c0 .19024843-.15219874.38049685-.30439748.45659622-1.1038993.38049685-2.35999734.64684465-3.57758726.64684465-3.30986417 0-6.46752961-1.67418614-6.46752961-6.1259993l.03759126-9.81681876h-2.20688174c-.19070686 0-.3429056-.15219874-.3429056-.34244717v-3.34837229c0-.19024843.15219874-.34244717.3429056-.34244717h2.20688174l-.03759126-4.56596221c0-.19024843.15219874-.34244717.34198874-.34244717h5.06014969c.19070686 0 .3429056.15219874.3429056.34244717l-.03850812 4.56596221h4.33858096c.18979 0 .34198874.15219874.34198874.34244717v3.34837229c0 .19024843-.15219874.34244717-.34198874.34244717h-4.37617222l.03759126 9.66462002c0 1.67418614.83800993 2.20688174 2.09319111 2.20688174.91319244 0 1.63659489-.15219874 2.20688174-.34244717.19070686-.03804969.3429056.11414906.3429056.2663478v3.04397481z"/><path d="m286.95376432 35.43670504c.18979 0 .34198874.15219874.30439748.34244717-.49418748 3.5766704-3.919576 6.77284395-9.39873065 6.77284395-6.54454584 0-10.08270812-4.29961442-10.08270812-10.23536529 0-6.24014836 3.72886914-10.34951435 9.9690175-10.34951435 6.43085521 0 10.00660875 4.26156473 10.12121624 11.11050805 0 .19024843-.15219874.34244717-.34198874.34244717h-14.00228412c.22738125 3.69081946 1.67418614 5.32695592 4.41376347 5.32695592 1.9015674 0 3.27135606-.87514276 3.80496851-2.96787544.03759126-.19024843.22738125-.34244717.41808811-.34244717h4.79426032zm-9.16951568-9.7026697c-2.28298111 0-3.65276977 1.36978866-4.10936599 4.07131631h8.02802513c-.22829811-2.09273268-1.40829678-4.07131631-3.91865914-4.07131631z"/><path d="m290.45525221 42.05735025c-.19070686 0-.3429056-.15219874-.3429056-.34244717l.15219874-9.47437159-.15219874-9.43632191c0-.19024843.15219874-.34244717.3429056-.34244717h5.02255843c.19070686 0 .3429056.15219874.3429056.34244717l-.15219874 2.96787544c1.5219874-2.32103079 4.14695725-3.46252135 7.00114206-3.46252135.30439748 0 .60879496.03804969.87468433.07609937.19070686.03804969.3429056.22829811.3429056.41854654v3.53862072c0 .19024843-.15219874.30439748-.3429056.30439748-.22829811-.03804969-.49510434-.03804969-.72248559-.03804969-4.03418348 0-7.03965018 2.24493142-7.00114206 6.73479426v8.37093072c0 .19024843-.15219874.34244717-.3429056.34244717h-5.02255843z"/><path d="m201.17662771 74.84376451c-.28999585-.22672402-.36155326-.56492697-.40147477-1.04775122-.02109061-.32012528-.03690856-.65531529-.03690856-1.00406354 0-2.93159436.86320841-6.65483972 2.25443523-9.72879568-.94380466.37887769-1.9290373.8504034-2.93460731 1.40403183l-.91066228.55136872.08285596-1.41156419 2.42391332-1.14265895c1.48839426-.6410038 2.0066206-.82780632 2.0066206-.82780632s1.04549151-1.95540056 1.06733536-1.9772444c0 0 1.92150494-3.29616057 2.04729534-3.48898897-.84739046.38264387-1.75805273.83533868-2.48793838 1.23982639l-1.76709157 1.12458129.02335031-.79089776c.02109061-.7268727.26061964-.84739046 1.58932788-1.51626399 3.52288459-1.8243375 6.83486312-2.93611378 9.32430797-3.13120189.15140043-.01129854.30054115-.02109061.44214951-.02109061 1.22400844 0 1.99080265.43612362 2.05181476 1.1667625.05724593.73591153-.6221729 1.38821388-1.86425901 1.78968864l-.50391486.15968602-.08285596-1.0703483.30355409-.10846598c.49035661-.17023133.78637834-.35326767.77583304-.47830484-.11825805-.14838748-.36305973-.29225555-1.02967356-.29225555-.11825805 0-.24103551.00753236-.37134533.01431148-1.3656168.10921921-4.43279363 1.17429486-4.43279363 1.17429486l-.55212196.73214535c-1.03795916 1.41909655-2.20622813 3.32553677-3.04307329 4.95855234l.74871655-.24178874c1.45073246-.43913657 3.50330046-.86320841 4.77702247-.98749235 0 0 .84437751-.0775833.93325936-.0775833.20262047 0 .34874825.04293445.47378542.13934865l.19433488.33820295c.03464885.30129438-.06101211.49864221-.23199668.76001509l-.17927016.32313823-.2952685-.05122005c-.43085097-.0775833-.82705309-.11373863-1.24585228-.11373863-.23500962 0-.4858372.0105453-.76152156.03615533-1.0138556.0775833-2.02017885.28924261-3.5921823.7539892 0 0-1.31138381.43687686-1.55091285.52048605-.14914072.43461715-.5927967 1.5561855-.87601342 2.454796-.73817124 2.25142229-1.05302387 3.94770967-1.05302387 5.67262003 0 .36833239.00979207.73591153.04067474 1.12458129.05122005.61238084.15516661 1.0786339.36983886 1.6608853l.06854447.26664553s-1.16299632 1.2526314-1.39198006 1.28050113-.402228-.13708894-.402228-.13708894z"/><path d="m209.3326667 69.7390844c-.49487603 0-.97318086-.17701045-1.3467859-.49788897-.46625306-.39770859-.75248273-.98598587-.80445601-1.65485941-.08662214-1.06884183.3540209-2.2830582 1.17881428-3.2487067.74645684-.87300048 1.69553415-1.41457714 2.60393672-1.48613455.07231065-.00527265.14838748-.00979207.23350315-.00979207.95133702 0 1.09445185.41804596 1.11102304.59806935l-.13934865.36080003q-.10846598.21316578-.15742632.24404845c-.37586474.25082758-.47905807.25007434-.51822634.24178874.21843843.10018038.40524095.27417789.59505641.5257587.01958414-.00150647.04067474-.00225971.06327182-.00225971.10545303 0 .24555492.01506472.3999683.01506472.08662214 0 .17625722-.00451942.27493113-.01355825.56266726-.04444092 1.02063473-.25911317 1.40252536-.65908147l.14010189-.16646515.14010189-.20563342c-.13181629-.32163176-.13181629-.32539794-.13181629-.37059209-.00150647-.58451111.2470614-1.05302387.48056454-1.32494206.22145137-.25459375.47227895-.402228.72611947-.42633155h.00602589c.43612362 0 .74193742.30506056.77432657.70879504.00225971.28547643-.06628476.52651194-.24555492.86396165.4880969-.10545303 1.34301972-.6387441 1.34301972-.6387441l.85115664.63497792s-1.56145815 2.57380728-1.55015961 3.55150756c.00225378.1950271.09340126.35477414.22069814.46173364.11147892.0964142.24630816.14612778.39318917.14612778.67489942-.05122005 1.40704478-.60635495 2.51806782-1.8619993l1.35657797-1.64582058.46625306-.59354994.28171025-.17098456.39695535.07080418.12051775.13482924.11675157.23500962-.00979207.12503717-.21467225.43009773c-2.44349746 3.25849877-3.91004788 4.5284546-5.30654735 4.6436997l-.17249104.00527265c-.98975205 0-1.70607945-.67489942-1.78441599-1.67971619l-.00979207-.21768519c0-.72988565.26890524-1.53283518.84287104-2.5030031l-.21542549.05724593-.36983886-.01506472c-.06176535.13633571-.17776369.28924261-.35477414.47001924-.62066643.6304585-1.25715082.92949318-2.1301513 1.00029736l-.4670063-.02335031c.01581796.10168685.01431148.10394656.01431148.11223216l.01129854.21391901c0 1.71059887-1.44094039 3.43852216-2.96548998 3.55602697l-.16947809.00903883zm1.5185237-5.63495823c-.66661383.05122005-1.21120343.38415034-1.60665231.92045435-.40072153.54383636-.6010823 1.23304727-.54910902 1.8913755.03163591.40750066.18981546.74946978.44516245.96263556.18454281.15591984.39695535.23802256.61690025.23802256.47905807-.03841503.84739046-.23952904 1.12834747-.57095286.31786558-.37209857.49261632-.85266311.49261632-1.35431826l-.00376618-.16495868-.07306389-.36833239c-.37737122-.12805011-.86320841-.32841088-.90011697-.81123513 0 0-.0293762-.30054115.1235307-.44440922s.44516245-.22069814.4481754-.22069814c.06251858 0 .12202423.00301294.18002339.0105453-.17550398-.07457036-.23425638-.08812861-.30204762-.08812861z"/><path d="m227.48640661 67.86955274c-.9656485 0-1.66841766-.68393825-1.74976714-1.70156004-.00753236-.12277746-.01280501-.23651609-.01280501-.34950149 0-.64702969.14989396-1.2714623.60635495-2.47212043l-1.41005772.19885429-.39544888.04519416.92723347-1.27748819 1.36335709-.09566097 1.40252536-2.87886785 1.97423146-.56869315s-1.48161514 2.9911-1.61343143 3.25849877l2.90447787-.34874825-.41578625 1.22551491s-2.69281856.23350315-3.02574886.23350315c-.45269481 1.14341219-.71105475 2.04352916-.71105475 2.65515676.02259708.36080003.09114155.53178459.20036077.62443261.07155742.05799917.17927016.09189479.30129438.09189479.55664138-.04594739 1.09821803-.38791652 1.90418051-1.18258046.56869315-.55814785 1.53434165-1.69779386 2.07893125-2.41261479.27719083-1.4138239.7645345-3.01143737 1.41759008-4.67834856.61765349-1.5561855 1.27899466-2.93159436 1.86425901-3.87389255.59957583-.99201176 1.04323181-1.41231743 1.52831577-1.44922599h.00301294c.3833971 0 .66360088.28547643.69297708.66360088.00602589 1.03946563-.56718668 2.79450542-1.4891475 4.72504919-.61388731 1.26694289-1.09671156 2.13391748-2.18438429 3.64189587l-.28095701.41427978-.10771274.12202423-.2093996 1.98402352-.01431148.2387758c.48960338-.51671987 1.08315331-1.07185477 1.62774291-1.5185237 1.30686439-1.06281594 2.20396842-1.58104228 2.82162191-1.63075586h.00150647c.57697875 0 .94983055.36682591.992765.89183138 0 0-.06101211.72009358-.06327182.72837917-.20337371 1.1750481-.3345888 2.18443717-.12579041 2.22882521 0 0 1.56070491-.79692365 2.95268497-2.47889955.7645345-1.61343143 2.33503148-3.03252798 3.47919691-3.12592924.00527265 0 .0105453-.00075324.01581796-.00075324.77733951 0 1.24057963.3916827 1.28577379.97242763.00301294.6199132-.23576286 1.17806104-.66962677 1.68875503-.72988565.85642929-1.86425901 1.46278424-2.89091962 1.54338049l-.17249104.00903883c-.02636326.1529069-.03916827.27116495-.03916827.3833971.02786973.43311068.14763425.68845767.3434756.85718252.16571191.13482924.37511151.20789313.60334201.20789313 1.0808936-.0775833 2.38248535-1.21948902 4.18874518-3.59745495 0 0 .37661798-.48056454.39318917-.50994075.0775833-.11825805.22446432-.33067059.50014868-.35552737h.00150647c.31033322 0 .53931695.22069814.56116079.50316162.01355825.22145137-.0858689.36305973-.46775953.86697459-1.33096794 1.72641682-2.01038678 2.49622398-2.90598434 3.2946541-.95359673.84663722-1.86877842 1.34151325-2.57757346 1.39574624-.06327182.00527265-.12579041.00527265-.18604928.00527265-1.10123098 0-1.90116757-.76604097-1.99155588-1.90568698 0-.00753236-.00075324-.01581796-.00150647-.02410355-1.06884183 1.0808936-1.90794669 1.59535377-2.68829915 1.65636588h-.01732443c-.83081927 0-1.42401736-.60986274-1.43190156-1.28125437s.29903468-2.60619643.29903468-2.60619643c-.07005094.13030982-.68770443.4293445-1.85898635 1.41683684-.86245518.7457036-1.62472997 1.58932788-2.09098303 2.31318764-.30054115.4481754-.40147477.59806935-.71105475.6199132l-.37737122-.10997245c-.23199668-.17851692-.33443677-.43085097-.36004679-.78110569-.03012944-.3833971-.02711649-.81952073.00903883-1.30234498-1.55467902 1.80475336-2.81258308 2.72370124-3.83849046 2.80505072l-.15968602.00677912zm17.0329248-6.81226604c-.32362163.03339819-.95962262.48357749-1.47483601 1.15847691-.16797162.2093996-.28321672.42331861-.39620212.68845767.52500547-.10093362 1.04775122-.38038416 1.45675835-.76528774.07984301-.07306389.15064719-.1446213.21241254-.22295784.25233405-.29451526.49369614-.88880614.20186724-.858689zm-8.38593347-6.2942353c-.5000147.60777415-1.63611707 3.07511161-1.96503511 4.34712034.80201213-1.19315972 1.9381145-3.62107267 1.96503511-4.34712034z"/><path d="m257.42301667 67.43870177c-1.02741385 0-1.95314085-.24254198-2.67775384-.70276915-.89107814-.57019962-1.4221095-1.41457714-1.49667986-2.37645946-.06402506-.78261216.27041171-1.62021055.85266311-2.13467072l.35326767-.31711234.56417374.82705309-.21241254.24404845c-.33443677.39469564-.4481754.68393825-.41804596 1.06658212.1046998 1.31439675 1.4514857 2.26874672 3.20200607 2.26874672.13181629 0 .26363259-.00527265.39620212-.01581796 1.16977545-.09038832 2.24012375-.52048605 3.0957998-1.24283934 1.36862974-1.18032075 2.15500809-2.75307744 2.15500809-4.31378235 0-.12051775-.00602589-.24178874-.01581796-.35778708-.11298539-1.44094039-.77432657-2.63406616-1.91623229-3.45885954-1.34151325 1.08616626-2.37871917 1.7490139-3.58389671 2.30414881-.98221969.44214951-1.83563604.70126268-2.47061395.75022302l-.54684931-.01431148s-.3728518.66134117-.39243594.68544473c-.00150647.02335031-.55438167 1.19237253-.55438167 1.19237253-.858689 1.7572995-1.16299632 2.70863652-1.16299632 3.63963617 0 0 .03853352 1.04871899-.81952073.77658628-.64002973-.20298603-.47453866-1.18634664-.47453866-1.18634664l.39092946-1.17580134c.26965847-.82178043 1.0808936-2.5971576 1.97197175-4.31528882l.00075324-.00225971c-.2493211-.20186724-.47981131-.4858372-.52274576-.97995999-.00376618-1.32569529 1.3196694-2.64837764 3.29013468-3.42270421l.8775199-1.29933203c1.10047774-1.46052453 1.55166608-2.03976298 2.29661645-2.8276478 1.57200345-1.70156004 2.91652964-2.57682022 4.11040864-2.67398766l.18755575-.00753236c.4670063 0 .87149401.13482924 1.16902221.39017623.33519.28321672.53329106.70502886.57245933 1.21873579l.00451942.20789313c0 1.44470657-1.15094455 3.53117019-3.01595679 5.48054486 1.3196694.90011697 2.11433334 2.29661645 2.2453964 3.95674851.01129854.15667308.01657119.31334616.01657119.47529189 0 1.61870408-.6304585 3.25021317-1.77462393 4.59323289-1.35657797 1.58028905-3.24945994 2.57606699-5.19356196 2.73198683-.17249104.01129854-.34046265.01581796-.50391486.01581796zm.72611947-11.42658954c-.44440922.03389562-.8127416.12127099-1.26392994.25082758l-1.09294538 1.75127361-.50843427.89258461c1.23530698-.13859542 3.27356349-1.19161929 4.96307175-2.56627492-.52274576-.21919166-1.1456719-.34196913-1.74976714-.34196913-.11675157 0-.23350315.00451942-.34799501.01355825zm-3.11312423 1.21798255c-.84618941.52921921-1.00388744 1.23886035-.80144306 1.3091241l.09114155-.17475074c.31711234-.51144722.71030151-1.13437336.71030151-1.13437336zm4.09986334-2.56778139c.85266311 0 1.6337688.14989396 2.51957429.4858372.43160421-.41126684.8127416-.85341634 1.19237253-1.38218799.86320841-1.13362012 1.33699383-2.20321519 1.33699383-3.01595679-.04670063-.63347144-.28472319-.8775199-.71406769-.8775199-1.00406354.07457036-2.03675004.77583304-3.2675376 2.14822896-.62141967.6681203-1.50195251 1.76181891-2.22882521 2.76286951l.52349899-.09264802c.23350315-.01958414.43913657-.02862297.63799086-.02862297z"/><path d="m267.38757521 65.1081897c-.48433072 0-.92873994-.15667308-1.28577379-.45344805-.40674742-.35100796-.65380881-.86772783-.69824974-1.45901806-.05272652-.63723762.10545303-1.34301972.48433072-2.15651456.79767688-1.67595001 2.37871917-3.10860481 3.52439106-3.19598019h.02109061c.77959922 0 1.23304727.39017623 1.27748819.96715497.00602589.62141967-.23425638 1.18032075-.67038001 1.69327444-.73139212.85718252-1.86576548 1.46278424-2.89091962 1.54338049l-.1717378.00376618c-.02711649.15366014-.03916827.26890524-.03916827.3728518.02711649.44290275.14763425.69824974.34573531.86772783.16269897.13934865.36983886.21316578.59957583.21316578 1.0703483-.08134948 2.40884861-1.25790406 4.18949842-3.60197437l.92422052-1.15998338-.13633571-.58375787c0-.68619796.44365598-1.27899466.98899882-1.32192911h.00677912c.47227895 0 .76302803.2952685.79315747.73365183.00677912.42256537-.14688101.81876749-.40373448 1.14642513l.27869731.26513906c.95058378.80671571 1.24585228 1.30761763 1.3174097 2.20698137.0082856.07457036.0082856.15817955.0082856.24404845 0 .25610023-.03690856.49788897-.11298539.72988565.88957167-.65456205 1.81981808-1.64280763 2.77416805-2.94741232l-1.7196377.25007434.93853201-1.3196694s.98523264-.05046681 1.35130532-.07607683c.45043511-.9551032 1.41081096-2.88188079 1.41081096-2.88188079l1.96443939-.56191403-1.60966525 3.2569923c.89409109-.11072569 2.90221816-.34874825 2.90221816-.34874825l-.41503301 1.22099549s-2.8381931.2387758-3.02800857.2387758c-.44892863 1.13663307-.70728857 2.0359968-.70728857 2.64913088.02259708.3623065.10394656.71858711.4775516.71858711.57773198-.04142798 1.1185554-.38189063 1.92451788-1.17730781.57170609-.56191403 1.5772761-1.75052037 2.1218657-2.46684777l.19960753-.2576067c.11072569-.16043926.25233405-.31861881.49487603-.33443677h.01280501c.29376203 0 .52048605.21316578.54383636.47378542.01732443.25308728-.08210272.39243594-.39770859.79466394-2.13241101 2.80580396-3.78877689 4.22113433-5.06174566 4.32432766-.00903883.00075324-.01807766.00075324-.02711649.00075324-.56643344 0-.9551032-.13708894-1.25790406-.3916827-.3623065-.31108645-.58451111-.77357333-.62518585-1.30385145-.0082856-.14612778-.01431148-.42256537-.01280501-.45646099-1.47106983 1.64582058-2.72520771 2.40432919-4.23695228 2.58585906-.00075324.00150647-.22747726.06477829-.22747726.06477829l-.92422052.20412695c-.13633571.01431148-.23802256.01431148-.33594324.01431148-.84513075 0-1.39574624-.3140994-1.43642098-.82027396-.01807766-.18981546.04067474-.37435827.16495868-.51747311.11750481-.1446213.30280086-.23802256.51747311-.25610023l.46474659.05799917c.00753236 0 .19659459.03238915.23802256.05272652.63799086.15591984.81952073.17625722 1.04624475.18077663.56568021-.20713989 1.00255706-.90990904 1.00255706-1.7008068l-.00753236-.15516661c-.04293445-.55136872-.15516661-.82705309-.66360088-1.53886107l-.45796746.5739658c-1.39273329 1.81153249-2.07215213 2.58209288-2.9805547 3.39332801-.94154495.8398581-1.85672665 1.33398089-2.57682022 1.39047359l-.19132193.01129854zm1.82057132-6.00856326c-.23413361.00012081-.96790821.48734367-1.47634248 1.16073662-.16194573.201114-.27568436.40976036-.39394241.68469149.74043095-.14688101 1.52078341-.6681203 1.8725446-1.24359257.0775833-.1423616.2318739-.60195635-.00225971-.60183553z"/><path d="m217.92992614 76.76383184c-1.70575454.770005-2.52269432 1.3770148-2.43255601 1.8017842.0795338.36055322.74585031.43438396 1.29532086.43438396 1.20537893 0 2.82865398-.35583206 3.955481-.86407092 5.08780666-2.30038431 8.8131306-2.97632341 17.81321472-4.61511242 1.3414701-.24154709 2.80273185-.50921269 4.40126304-.80260403 4.59783918-.85425191 21.48099938-3.61495842 38.16738707-5.12335127l-.01040813-.14669567c-16.96937091.88606543-53.85400543 5.09173413-63.18970255 9.31566615z"/><path d="m54.82684377 18.63702661c-1.61018411 0-2.66883627-1.11958921-2.66883627-2.73028974 0-1.68738826 1.04315969-2.76101647 2.66883627-2.76101647 1.59572447 0 2.65386022 1.05839395 2.65386022 2.76101647 0 1.61070053-1.04315969 2.73028974-2.65386022 2.73028974zm0-.55204837c1.30394961 0 2.04035838-.82833076 2.04035838-2.17824137s-.7209163-2.2089681-2.04035838-2.2089681c-1.34939419 0-2.05533443.82833076-2.05533443 2.2089681 0 1.34991061.73640877 2.17824137 2.05533443 2.17824137zm.06145346-1.38063734-.30675092-.44489211h-.27576598v.98170622c0 .07668773-.06145347.1381412-.1383994.1381412h-.50608737c-.07642952 0-.13788299-.06145347-.13788299-.1381412v-2.73028974c0-.07668773.06145347-.1381412.13788299-.1381412h1.11958921c.82833076 0 1.30394961.32224339 1.30394961.93574523 0 .42939964-.24529745.7209163-.6749553.8590575l.70594024 1.08912068c.03046853.06119526 0 .12264873-.06145347.12264873h-.62899431c-.07694594 0-.16886793-.045961-.21482893-.12264873l-.32224339-.55230658zm-.09192199-1.77931025h-.4905949v.79760403h.50608737c.27576598 0 .50608737-.12264873.50608737-.39893112 0-.27602418-.18384398-.39867291-.52157984-.39867291z"/><path d="m57.48070717 35.17077442v-12.54173121l-38.40357819-22.58501122v11.15545238l-19.07712898-11.19948437v24.0776764l11.07569907 6.5387512v6.40179518l-11.07569907-6.44825719v13.01208622l23.62564375 13.86201064v-11.17926659l19.12845104 11.21503652v-11.12609772l14.72661239 8.68450904v-13.01121141l-25.69772332-15.08158997v-6.84143472l25.69772332 15.06676684zm-47.74822694-8.43421679-7.07175218-4.17720744v-17.91086433l19.07712898 11.19943578v-11.15175875l33.0821221 19.45485157v6.37491914l-25.69772332-15.06671824v11.39928077l-19.38977558-11.3910673zm20.66509961 3.95665866v6.75502314l-18.00437157-10.55795863v-6.7725193l18.00437157 10.57545478zm2.66072805.08577977 21.76167124 12.77185427v6.8278752l-14.72661239-8.68266222v11.13713002l-19.12845104-11.21139148v11.17562156l-18.30418765-10.73918966v-6.85995148l11.07569907 6.45010401v-10.88406755l19.32188077 11.32691472z"/></g></svg>